<?xml version="1.0" ?><!DOCTYPE svg  PUBLIC '-//W3C//DTD SVG 1.1//EN'  'http://www.w3.org/Graphics/SVG/1.1/DTD/svg11.dtd'><svg enable-background="new 0 0 512 512" height="512px" version="1.1" viewBox="0 0 512 512" width="512px" xml:space="preserve" xmlns="http://www.w3.org/2000/svg" xmlns:xlink="http://www.w3.org/1999/xlink"><g id="guides"/><g id="icon_1_"><circle cx="256" cy="256" fill="#231F20" r="192"/><linearGradient gradientUnits="userSpaceOnUse" id="SVGID_1_" x1="255.9995" x2="255.9995" y1="87.0005" y2="427.2613"><stop offset="0" style="stop-color:#F95E6E"/><stop offset="0.1467" style="stop-color:#E46187"/><stop offset="0.456" style="stop-color:#AD68C6"/><stop offset="0.7151" style="stop-color:#7B6FFF"/><stop offset="0.9516" style="stop-color:#65B9D5"/></linearGradient><circle cx="256" cy="256" fill="url(#SVGID_1_)" r="168"/><linearGradient gradientUnits="userSpaceOnUse" id="SVGID_2_" x1="188.9858" x2="324.9858" y1="133.4795" y2="406.4795"><stop offset="0" style="stop-color:#F95E6E"/><stop offset="0.1453" style="stop-color:#F65E71"/><stop offset="0.2631" style="stop-color:#ED607B"/><stop offset="0.3714" style="stop-color:#DF628C"/><stop offset="0.474" style="stop-color:#CA64A4"/><stop offset="0.5725" style="stop-color:#AF68C3"/><stop offset="0.6667" style="stop-color:#8E6CE9"/><stop offset="0.7151" style="stop-color:#7B6FFF"/><stop offset="0.9516" style="stop-color:#65B9D5"/></linearGradient><path d="M423.568,268c-6.154,87.182-78.82,156-167.568,156c-88.749,0-161.415-68.818-167.569-156   c6.154-87.183,78.82-156,167.569-156C344.748,112,417.414,180.817,423.568,268z" fill="url(#SVGID_2_)"/><ellipse cx="256" cy="268.571" fill="#F8F4F5" rx="144" ry="132.571"/><linearGradient gradientUnits="userSpaceOnUse" id="SVGID_3_" x1="255.9995" x2="255.9995" y1="105.0005" y2="332.2013"><stop offset="0" style="stop-color:#F9788B"/><stop offset="0.4301" style="stop-color:#F95E6E"/><stop offset="0.4656" style="stop-color:#E86081"/><stop offset="0.6373" style="stop-color:#9A6BDB"/><stop offset="0.7151" style="stop-color:#7B6FFF"/><stop offset="0.9516" style="stop-color:#65B9D5"/></linearGradient><path d="M423.806,264C419.629,174.932,346.101,104,256,104c-90.102,0-163.629,70.932-167.806,160   c0.063,1.338,0.143,2.672,0.237,4.001C94.584,180.818,167.251,112,256,112c88.748,0,161.416,68.818,167.568,156.001   C423.662,266.672,423.743,265.338,423.806,264z" fill="url(#SVGID_3_)"/><linearGradient gradientUnits="userSpaceOnUse" id="SVGID_4_" x1="180.1157" x2="320.4808" y1="128.7563" y2="410.5187"><stop offset="0" style="stop-color:#F95E6E"/><stop offset="0.1245" style="stop-color:#F65E71"/><stop offset="0.2255" style="stop-color:#ED607B"/><stop offset="0.3184" style="stop-color:#DF628C"/><stop offset="0.4063" style="stop-color:#CA64A4"/><stop offset="0.4907" style="stop-color:#AF68C3"/><stop offset="0.5714" style="stop-color:#8E6CE9"/><stop offset="0.6129" style="stop-color:#7B6FFF"/><stop offset="0.8172" style="stop-color:#65B9D5"/></linearGradient><path d="M284,296.307c-9.899,2.121-18,11.957-18,21.857s8.101,16.264,18,14.143l18-3.855   c9.899-2.123,18-11.959,18-21.859V190.497c0-4.4-3.52-7.246-7.822-6.324l-92.355,19.791c-4.302,0.922-7.822,5.276-7.822,9.676   v90.096c0,4.398-3.52,8.754-7.822,9.676L194,315.592c-9.9,2.123-18,11.957-18,21.859c0,9.898,8.1,16.264,18,14.141l18-3.855   c9.9-2.121,18-11.957,18-21.857v-80.096c0-4.4,3.52-8.755,7.822-9.677l56.355-12.076c4.303-0.922,7.822,1.924,7.822,6.324v54.097   c0,4.398-3.52,8.754-7.822,9.676L284,296.307z" fill="url(#SVGID_4_)"/></g></svg>